<?xml version="1.0" standalone="no"?>
<!DOCTYPE svg PUBLIC "-//W3C//DTD SVG 20010904//EN"
 "http://www.w3.org/TR/2001/REC-SVG-20010904/DTD/svg10.dtd">
<svg version="1.0" xmlns="http://www.w3.org/2000/svg"
 width="50px" height="50px" viewBox="0 0 3500.000000 2568.000000"
 preserveAspectRatio="xMidYMid meet">

<g transform="translate(0.000000,2568.000000) scale(0.100000,-0.100000)"
fill="#000000" stroke="none">
<path d="M32618 25670 c-380 -34 -722 -150 -984 -332 -50 -35 -570 -414 -1155
-844 -585 -429 -1487 -1090 -2004 -1469 -517 -379 -1165 -854 -1440 -1055
-275 -202 -2523 -1849 -4995 -3660 -2472 -1811 -4509 -3303 -4525 -3316 l-31
-23 -2904 2112 c-1598 1162 -4748 3454 -7000 5092 -2252 1639 -4138 3008
-4190 3043 -235 158 -536 268 -865 318 -148 22 -434 23 -578 1 -536 -82 -966
-284 -1311 -617 -328 -317 -512 -670 -608 -1170 l-22 -115 -4 -10740 c-2
-7694 0 -10776 8 -10868 14 -169 42 -320 86 -464 226 -752 839 -1313 1618
-1482 227 -50 271 -51 1513 -51 l1163 0 2 9515 3 9514 2785 -2020 c3951 -2867
5936 -4307 8050 -5843 1015 -736 1930 -1401 2035 -1477 105 -76 194 -134 200
-130 5 4 141 103 300 219 160 116 3112 2268 6560 4782 l6270 4571 3 -9581 2
-9581 1203 4 c1336 4 1271 1 1557 73 609 155 1127 579 1406 1150 108 221 186
493 213 745 8 67 11 3450 11 10898 0 9756 -1 10811 -15 10909 -53 362 -194
696 -423 1006 -94 127 -327 360 -452 452 -377 279 -785 422 -1245 438 -77 2
-184 1 -237 -4z"/>
</g>
</svg>
